<svg width="32" height="32" viewBox="0 0 200 200" xmlns="http://www.w3.org/2000/svg">
  <!-- Letra M estilizada -->
  <path
    d="M30 160V60c0-10 10-20 20-20h10c5 0 10 3 15 7l25 25 25-25c5-4 10-7 15-7h10c10 0 20 10 20 20v100c0 10-10 20-20 20s-20-10-20-20V90l-20 20c-5 5-10 5-15 0l-20-20v70c0 10-10 20-20 20s-20-10-20-20Z"
    fill="#199C90"
  />
  
  <!-- Barras do gráfico -->
  <rect x="55" y="50" width="12" height="30" rx="4" fill="#F46A5E" />
  <rect x="75" y="40" width="12" height="40" rx="4" fill="#F89E32" />
  <rect x="95" y="20" width="12" height="60" rx="4" fill="#4AA9E9" />
</svg>
